HIERARCHY
ROOT root
{
	OFFSET	0.00	0.00	0.00
	CHANNELS 6 Xposition Yposition Zposition Zrotation Xrotation Yrotation
	JOINT back
	{
		OFFSET	 0.352955	 0.000000	 0.000000
		CHANNELS 3 Zrotation Xrotation Yrotation
		JOINT chest
		{
			OFFSET	 0.264817	 0.004177	 0.000000
			CHANNELS 3 Zrotation Xrotation Yrotation
			JOINT l_clavicle
			{
				OFFSET	 0.114550	 0.000716	-0.065320
				CHANNELS 3 Zrotation Xrotation Yrotation
				JOINT l_end_clavicle
				{
					OFFSET	 0.162817	-0.003802	 0.000069
					CHANNELS 3 Zrotation Xrotation Yrotation
					JOINT l_shoulder
					{
						OFFSET	 0.000000	 0.000000	 0.000000
						CHANNELS 3 Zrotation Xrotation Yrotation
						JOINT l_forearm
						{
							OFFSET	 0.266368	 0.006912	-0.045869
							CHANNELS 3 Zrotation Xrotation Yrotation
							JOINT l_end_wrist
							{
								OFFSET	 0.317021	-0.006522	 0.006333
								CHANNELS 3 Zrotation Xrotation Yrotation
								JOINT l_index1
								{
									OFFSET	 0.152748	-0.021000	-0.014320
									CHANNELS 3 Zrotation Xrotation Yrotation
									JOINT l_index2
									{
										OFFSET	 0.039283	 0.000000	 0.000000
										CHANNELS 3 Zrotation Xrotation Yrotation
										JOINT l_index3
										{
											OFFSET	 0.038151	 0.000000	 0.000000
											CHANNELS 3 Zrotation Xrotation Yrotation
											End Site
											{
												OFFSET	 0.038151	 0.000000	 0.000000
											}
										}
									}
								}
								JOINT l_middle1
								{
									OFFSET	 0.151723	 0.016194	-0.014667
									CHANNELS 3 Zrotation Xrotation Yrotation
									JOINT l_middle_2
									{
										OFFSET	 0.038269	 0.000000	 0.000000
										CHANNELS 3 Zrotation Xrotation Yrotation
										JOINT l_middle_3
										{
											OFFSET	 0.039743	 0.000000	 0.000000
											CHANNELS 3 Zrotation Xrotation Yrotation
											End Site
											{
												OFFSET	 0.039743	 0.000000	 0.000000
											}
										}
									}
								}
								JOINT l_pinky1
								{
									OFFSET	 0.117088	 0.077397	-0.013819
									CHANNELS 3 Zrotation Xrotation Yrotation
									JOINT l_pinky2
									{
										OFFSET	 0.028938	 0.000000	 0.000000
										CHANNELS 3 Zrotation Xrotation Yrotation
										JOINT l_pinky3
										{
											OFFSET	 0.027080	 0.000000	 0.000000
											CHANNELS 3 Zrotation Xrotation Yrotation
											End Site
											{
												OFFSET	 0.027080	 0.000000	 0.000000
											}
										}
									}
								}
								JOINT l_ring1
								{
									OFFSET	 0.137788	 0.047650	-0.014135
									CHANNELS 3 Zrotation Xrotation Yrotation
									JOINT l_ring2
									{
										OFFSET	 0.030749	 0.000000	 0.000000
										CHANNELS 3 Zrotation Xrotation Yrotation
										JOINT l_ring3
										{
											OFFSET	 0.032711	 0.000000	 0.000000
											CHANNELS 3 Zrotation Xrotation Yrotation
											End Site
											{
												OFFSET	 0.032711	 0.000000	 0.000000
											}
										}
									}
								}
								JOINT l_thumb1
								{
									OFFSET	 0.054053	-0.036728	-0.011261
									CHANNELS 3 Zrotation Xrotation Yrotation
									JOINT l_thumb_2
									{
										OFFSET	 0.051141	-0.005593	-0.001180
										CHANNELS 3 Zrotation Xrotation Yrotation
										JOINT l_thumb_3
										{
											OFFSET	 0.046422	-0.001905	 0.000191
											CHANNELS 3 Zrotation Xrotation Yrotation
											End Site
											{
												OFFSET	 0.046422	-0.001905	 0.000191
											}
										}
									}
								}
							}
						}
					}
				}
			}
			JOINT neck
			{
				OFFSET	 0.143918	 0.000470	 0.000000
				CHANNELS 3 Zrotation Xrotation Yrotation
				JOINT head
				{
					OFFSET	 0.000000	-0.000205	 0.055236
					CHANNELS 3 Zrotation Xrotation Yrotation
					End Site
					{
						OFFSET	 0.000000	-0.000205	 0.055236
					}
				}
			}
			JOINT r_clavicle
			{
				OFFSET	 0.114552	 0.000716	 0.065320
				CHANNELS 3 Zrotation Xrotation Yrotation
				JOINT r_end_clavicle
				{
					OFFSET	-0.162817	 0.003801	-0.000067
					CHANNELS 3 Zrotation Xrotation Yrotation
					JOINT r_shoulder
					{
						OFFSET	 0.000000	 0.000000	 0.000000
						CHANNELS 3 Zrotation Xrotation Yrotation
						JOINT r_forearm
						{
							OFFSET	-0.266367	-0.006912	 0.045867
							CHANNELS 3 Zrotation Xrotation Yrotation
							JOINT r_end_wrist
							{
								OFFSET	-0.317022	 0.006522	-0.006331
								CHANNELS 3 Zrotation Xrotation Yrotation
								JOINT r_index1
								{
									OFFSET	-0.152748	 0.021000	 0.014322
									CHANNELS 3 Zrotation Xrotation Yrotation
									JOINT r_index2
									{
										OFFSET	-0.039280	 0.000000	-0.000001
										CHANNELS 3 Zrotation Xrotation Yrotation
										JOINT r_index3
										{
											OFFSET	-0.038152	 0.000000	-0.000001
											CHANNELS 3 Zrotation Xrotation Yrotation
											End Site
											{
												OFFSET	-0.038152	 0.000000	-0.000001
											}
										}
									}
								}
								JOINT r_middle1
								{
									OFFSET	-0.151722	-0.016194	 0.014664
									CHANNELS 3 Zrotation Xrotation Yrotation
									JOINT r_middle_2
									{
										OFFSET	-0.038270	 0.000000	 0.000003
										CHANNELS 3 Zrotation Xrotation Yrotation
										JOINT r_middle_3
										{
											OFFSET	-0.039744	 0.000000	 0.000000
											CHANNELS 3 Zrotation Xrotation Yrotation
											End Site
											{
												OFFSET	-0.039744	 0.000000	 0.000000
											}
										}
									}
								}
								JOINT r_pinky1
								{
									OFFSET	-0.117090	-0.077397	 0.013818
									CHANNELS 3 Zrotation Xrotation Yrotation
									JOINT r_pinky2
									{
										OFFSET	-0.028938	 0.000000	 0.000000
										CHANNELS 3 Zrotation Xrotation Yrotation
										JOINT r_pinky3
										{
											OFFSET	-0.027079	-0.000001	 0.000000
											CHANNELS 3 Zrotation Xrotation Yrotation
											End Site
											{
												OFFSET	-0.027079	-0.000001	 0.000000
											}
										}
									}
								}
								JOINT r_ring1
								{
									OFFSET	-0.137790	-0.047650	 0.014136
									CHANNELS 3 Zrotation Xrotation Yrotation
									JOINT r_ring2
									{
										OFFSET	-0.030748	 0.000000	-0.000001
										CHANNELS 3 Zrotation Xrotation Yrotation
										JOINT r_ring3
										{
											OFFSET	-0.032707	-0.000001	 0.000003
											CHANNELS 3 Zrotation Xrotation Yrotation
											End Site
											{
												OFFSET	-0.032707	-0.000001	 0.000003
											}
										}
									}
								}
								JOINT r_thumb1
								{
									OFFSET	-0.054054	 0.036728	 0.011262
									CHANNELS 3 Zrotation Xrotation Yrotation
									JOINT r_thumb_2
									{
										OFFSET	-0.051140	 0.005594	 0.001177
										CHANNELS 3 Zrotation Xrotation Yrotation
										JOINT r_thumb_3
										{
											OFFSET	-0.046419	 0.001906	-0.000190
											CHANNELS 3 Zrotation Xrotation Yrotation
											End Site
											{
												OFFSET	-0.046419	 0.001906	-0.000190
											}
										}
									}
								}
							}
						}
					}
				}
			}
		}
	}
	JOINT Pelvis
	{
		OFFSET	 0.000000	 0.000000	 0.000000
		CHANNELS 3 Zrotation Xrotation Yrotation
		JOINT l_thigh
		{
			OFFSET	-0.000001	-0.129194	 0.000000
			CHANNELS 3 Zrotation Xrotation Yrotation
			End Site
			{
				OFFSET	-0.000001	-0.129194	 0.000000
			}
		}
		JOINT r_thigh
		{
			OFFSET	 0.000001	 0.129194	 0.000000
			CHANNELS 3 Zrotation Xrotation Yrotation
			End Site
			{
				OFFSET	 0.000001	 0.129194	 0.000000
			}
		}
	}
}
MOTION
Frames:    4
Frame Time: 0.01666667
-0.049821	-0.073987	-0.018144	-174.781400	 1.239029	-90.795940	-4.800686	-1.569271	-7.016117	-4.150735	-5.391836	-6.719967	 1.353161	-5.503225	 110.557600	-0.813313	 0.122417	-8.559153	-54.625190	-21.979920	 18.283370	-2.554284	 25.249880	 1.133269	-19.648190	 19.333600	-54.140980	-11.582920	-4.601621	 9.666660	 2.503291	-1.126934	 4.548135	 3.270450	-0.643668	-80.071260	 3.986970	 3.183079	 11.898430	-0.275389	 3.148105	 9.181604	 2.909490	 4.319653	-70.583950	 37.409680	 19.799750	 14.820620	-6.821038	 19.211720	 10.901230	-5.647577	 19.246380	-70.653240	 18.564600	 10.448870	 21.101420	-3.898340	 9.395206	 9.518596	-0.473063	 9.966733	-72.614270	-51.617550	-12.041010	-7.588076	 16.022730	-0.540169	 0.139211	 14.789960	-0.368235	 3.437935	 0.407233	 0.093530	 90.229580	-91.733680	 9.031270	-83.325870	-178.161500	-10.886650	 99.465260	-0.813313	 0.122417	-8.559153	-87.223720	-25.066080	-25.275670	-2.042304	-11.942620	 1.505401	 13.735840	-21.177520	-11.710630	-4.756198	-1.858328	 7.877069	 2.511314	-1.127202	-4.345564	 3.298850	-1.139067	-89.650820	-13.130030	-15.115720	 68.546820	-0.135476	 3.282957	 78.726730	 0.190565	 7.210355	-12.083980	 29.678590	 12.055710	 58.452660	-7.184040	 21.223040	-171.380800	-4.716930	 19.573790	-20.542330	 18.775420	 9.250502	 175.603700	-3.484331	 9.763526	 74.826870	-5.091951	 8.465197	 138.599700	-33.596260	-16.124710	-25.603970	-12.388710	-0.434622	-0.082520	 35.370370	-0.405495	 3.620178	 0.000000	 90.000000	 0.000000	 175.021800	 8.642158	 172.954300	-173.568500	-15.037710	-32.890920
-0.049908	-0.073933	-0.018169	-174.774600	 1.227186	-90.805440	-4.803021	-1.571211	-7.016357	-4.166350	-5.411544	-6.730177	 1.351295	-5.496124	 110.557000	-0.813313	 0.122417	-8.559153	-54.740560	-21.907140	 18.245290	-2.412690	 25.258910	 1.097882	-19.681760	 19.249340	-54.197610	-11.582920	-4.601621	 9.666660	 2.503291	-1.126934	 4.548135	 3.270450	-0.643668	-80.071260	 3.986140	 3.182716	 11.898480	-0.275389	 3.148105	 9.181604	 2.909494	 4.319638	-70.584170	 37.411310	 19.800340	 14.820060	-6.821038	 19.211720	 10.901230	-5.647548	 19.246380	-70.651890	 18.563520	 10.448320	 21.101630	-3.898340	 9.395206	 9.518596	-0.473063	 9.966733	-72.614270	-51.617550	-12.041010	-7.588076	 16.022730	-0.540169	 0.139211	 14.789960	-0.368235	 3.437935	 0.408857	 0.070059	 90.229730	-91.766330	 9.039850	-83.296170	-178.162000	-10.888580	 99.455440	-0.813313	 0.122417	-8.559153	-87.239230	-25.032000	-25.354380	-2.042281	-11.933070	 1.504412	 13.727950	-21.150060	-11.665940	-4.767653	-1.861246	 7.901423	 2.511286	-1.127200	-4.313338	 3.298885	-1.137744	-89.625280	-12.999420	-14.958090	 68.579930	-0.135477	 3.282956	 78.726510	 0.190580	 7.210352	-12.084200	 29.678610	 12.055750	 58.452490	-7.170513	 21.224840	-172.101300	-4.716933	 19.573790	-20.542520	 18.779200	 9.209532	 174.965300	-3.484332	 9.763526	 74.826640	-5.113069	 8.496881	 137.729000	-33.556960	-16.044360	-25.279890	-16.443540	-0.411069	-0.108951	 35.370370	-0.405495	 3.620178	 0.000000	 90.000000	 0.000000	 175.013500	 8.647234	 172.973000	-173.552600	-15.047940	-32.888020
-0.050000	-0.073882	-0.018192	-174.764600	 1.215812	-90.814800	-4.805162	-1.573235	-7.016934	-4.182817	-5.435701	-6.740809	 1.349677	-5.489973	 110.556500	-0.813313	 0.122417	-8.559153	-54.836900	-21.854590	 18.213750	-2.281905	 25.265260	 1.064095	-19.716180	 19.185620	-54.239040	-11.582920	-4.601621	 9.666660	 2.503291	-1.126934	 4.548135	 3.270450	-0.643668	-80.071260	 3.985138	 3.182278	 11.898540	-0.275389	 3.148105	 9.181604	 2.909498	 4.319622	-70.584400	 37.412940	 19.800940	 14.819500	-6.821038	 19.211720	 10.901230	-5.647522	 19.246380	-70.650550	 18.562260	 10.447670	 21.101870	-3.898340	 9.395206	 9.518596	-0.473063	 9.966733	-72.614270	-51.617550	-12.041010	-7.588076	 16.022730	-0.540169	 0.139211	 14.789960	-0.368235	 3.437935	 0.410518	 0.045900	 90.229900	-91.799810	 9.046783	-83.261110	-178.163000	-10.888930	 99.443090	-0.813313	 0.122417	-8.559153	-87.255200	-25.000720	-25.431840	-2.041998	-11.920700	 1.503192	 13.717750	-21.117050	-11.611240	-4.780685	-1.864517	 7.929922	 2.511252	-1.127197	-4.275626	 3.298924	-1.136196	-89.595420	-12.867260	-14.798280	 68.613040	-0.135477	 3.282956	 78.726260	 0.190596	 7.210345	-12.084440	 29.678620	 12.055790	 58.452360	-7.156660	 21.226510	-172.837900	-4.716937	 19.573780	-20.542740	 18.782580	 9.167591	 174.312500	-3.484333	 9.763524	 74.826390	-5.134161	 8.529601	 136.838700	-33.517290	-15.962000	-24.948830	-20.588770	-0.385113	-0.134184	 35.370370	-0.405495	 3.620178	 0.000000	 90.000000	 0.000000	 175.005700	 8.652450	 172.990900	-173.534600	-15.058650	-32.884090
-0.050084	-0.073839	-0.018211	-174.753600	 1.206247	-90.822920	-4.806859	-1.575076	-7.017755	-4.197989	-5.459950	-6.750575	 1.348477	-5.485412	 110.556100	-0.813313	 0.122417	-8.559153	-54.906870	-21.824210	 18.191050	-2.175202	 25.268760	 1.035742	-19.747260	 19.145680	-54.263430	-11.582920	-4.601621	 9.666660	 2.503291	-1.126934	 4.548135	 3.270450	-0.643668	-80.071260	 3.984136	 3.181840	 11.898600	-0.275389	 3.148105	 9.181604	 2.909502	 4.319607	-70.584630	 37.414390	 19.801470	 14.819010	-6.821038	 19.211720	 10.901230	-5.647498	 19.246380	-70.649420	 18.560970	 10.447010	 21.102120	-3.898340	 9.395206	 9.518596	-0.473063	 9.966733	-72.614270	-51.617550	-12.041010	-7.588076	 16.022730	-0.540169	 0.139211	 14.789960	-0.368235	 3.437935	 0.412057	 0.023955	 90.230040	-91.830090	 9.051485	-83.226330	-178.164200	-10.888090	 99.430210	-0.813313	 0.122417	-8.559153	-87.269800	-24.975430	-25.499230	-2.041490	-11.907820	 1.501940	 13.706930	-21.083740	-11.556460	-4.793546	-1.867712	 7.958626	 2.511218	-1.127194	-4.237670	 3.298964	-1.134639	-89.565370	-12.748890	-14.654880	 68.642410	-0.135477	 3.282955	 78.726030	 0.190609	 7.210342	-12.084620	 29.678640	 12.055820	 58.452230	-7.144109	 21.227890	-173.504300	-4.716940	 19.573780	-20.542920	 18.785230	 9.129623	 173.722100	-3.484333	 9.763522	 74.826170	-5.152798	 8.559475	 136.033400	-33.481850	-15.887340	-24.649530	-24.337880	-0.360125	-0.155333	 35.370370	-0.405495	 3.620178	 0.000000	 90.000000	 0.000000	 174.999300	 8.657156	 173.005700	-173.517800	-15.068090	-32.879850
